HIERARCHY
ROOT Hips
{
	OFFSET 0.000000 0.000000 0.000000
	CHANNELS 6 Xposition Yposition Zposition Zrotation Yrotation Xrotation 
	JOINT LowerBack
	{
		OFFSET 0.000000 0.000000 0.000000
		CHANNELS 3 Zrotation Yrotation Xrotation
		JOINT Spine
		{
			OFFSET 0.028270 2.035590 -0.193380
			CHANNELS 3 Zrotation Yrotation Xrotation
			JOINT Spine1
			{
				OFFSET 0.056720 2.048850 -0.042750
				CHANNELS 3 Zrotation Yrotation Xrotation
				JOINT Neck
				{
					OFFSET 0.000000 0.000000 0.000000
					CHANNELS 3 Zrotation Yrotation Xrotation
					JOINT Neck1
					{
						OFFSET -0.054170 1.746240 0.172020
						CHANNELS 3 Zrotation Yrotation Xrotation
						JOINT Head
						{
							OFFSET 0.104070 1.761360 -0.123970
							CHANNELS 3 Zrotation Yrotation Xrotation
							End Site
							{
								OFFSET 0.000000 0.000000 0.000000
							}
						}
					}
				}
				JOINT LeftShoulder
				{
					OFFSET 0.000000 0.000000 0.000000
					CHANNELS 3 Zrotation Yrotation Xrotation
					JOINT LeftArm
					{
						OFFSET 3.362410 1.200890 -0.311210
						CHANNELS 3 Zrotation Yrotation Xrotation
						JOINT LeftForeArm
						{
							OFFSET 4.983000 -0.000000 -0.000000
							CHANNELS 3 Zrotation Yrotation Xrotation
							JOINT LeftHand
							{
								OFFSET 3.483560 -0.000000 -0.000000
								CHANNELS 3 Zrotation Yrotation Xrotation
								JOINT LeftFingerBase
								{
									OFFSET 0.000000 0.000000 0.000000
									CHANNELS 3 Zrotation Yrotation Xrotation
									JOINT LeftHandIndex1
									{
										OFFSET 0.715260 -0.000000 -0.000000
										CHANNELS 3 Zrotation Yrotation Xrotation
										End Site
										{
											OFFSET 0.000000 0.000000 0.000000
										}
									}
								}
								JOINT LThumb
								{
									OFFSET 0.000000 0.000000 0.000000
									CHANNELS 3 Zrotation Yrotation Xrotation
									End Site
									{
										OFFSET 0.000000 0.000000 0.000000
									}
								}
							}
						}
					}
				}
				JOINT RightShoulder
				{
					OFFSET 0.000000 0.000000 0.000000
					CHANNELS 3 Zrotation Yrotation Xrotation
					JOINT RightArm
					{
						OFFSET -3.136600 1.374050 -0.404650
						CHANNELS 3 Zrotation Yrotation Xrotation
						JOINT RightForeArm
						{
							OFFSET -5.241900 -0.000000 -0.000000
							CHANNELS 3 Zrotation Yrotation Xrotation
							JOINT RightHand
							{
								OFFSET -3.444170 -0.000000 -0.000000
								CHANNELS 3 Zrotation Yrotation Xrotation
								JOINT RightFingerBase
								{
									OFFSET 0.000000 0.000000 0.000000
									CHANNELS 3 Zrotation Yrotation Xrotation
									JOINT RightHandIndex1
									{
										OFFSET -0.622530 -0.000000 -0.000000
										CHANNELS 3 Zrotation Yrotation Xrotation
										End Site
										{
											OFFSET 0.000000 0.000000 0.000000
										}
									}
								}
								JOINT RThumb
								{
									OFFSET 0.000000 0.000000 0.000000
									CHANNELS 3 Zrotation Yrotation Xrotation
									End Site
									{
										OFFSET 0.000000 0.000000 0.000000
									}
								}
							}
						}
					}
				}
			}
		}
	}
}
}
MOTION
Frames: 7
Frame Time: 0.008333
-9.850179 15.462764 -0.830220 -71.597967 83.245327 -43.445220 -0.406176 0.437905 10.712836 -0.852334 0.818959 -1.048148 -5.708427 0.870055 -0.990102 9.266890 -8.055235 -8.335075 -1.860949 -0.099546 -0.645698 0.000000 0.000000 0.000000 -1.811215 16.620599 2.458596 -72.331436 22.564521 6.177074 -0.104108 -87.573527 0.002074 -0.769112 4.769265 -0.030517 -0.005124 0.114869 0.000000 0.000000 0.000000 0.000000 0.000000 0.000000 0.000000 5.419430 -0.611632 -0.370696 67.880918 6.493425 11.795820 179.761095 84.256052 179.964825 -5.476794 1.205749 -0.078015 0.108210 -0.411000 0.000000 0.000000 0.000000 0.000000 0.000000 0.000000 0.000000 
-9.635147 15.419369 -0.828957 -69.134583 82.797452 -41.377373 -0.485919 0.486459 10.767306 -0.885406 0.868109 -1.064996 -5.796378 0.918654 -1.089420 9.331934 -7.849168 -8.321616 -1.909955 -0.103390 -0.642292 0.000000 0.000000 0.000000 -2.019058 16.390619 2.476560 -72.180696 21.818656 6.068956 -0.121097 -87.217676 0.000995 -0.462756 5.016915 -0.018890 -0.010709 0.113720 0.000000 0.000000 0.000000 0.000000 0.000000 0.000000 0.000000 5.632294 -0.355319 -0.309403 68.273706 6.151642 11.585312 179.776432 84.809971 179.968046 -5.011500 1.382595 -0.079235 0.096101 -0.412241 0.000000 0.000000 0.000000 0.000000 0.000000 0.000000 0.000000 
-9.424319 15.379534 -0.827073 -66.466459 82.386035 -39.071187 -0.613485 0.535205 10.829236 -0.929729 0.917160 -1.083034 -5.890822 0.966822 -1.200172 9.385719 -7.601908 -8.286983 -1.971345 -0.108387 -0.634380 0.000000 0.000000 0.000000 -2.252452 16.105535 2.496832 -71.937227 20.933373 6.037865 -0.141656 -86.784024 -0.000324 -0.104574 5.322421 -0.003460 -0.017283 0.112123 0.000000 0.000000 0.000000 0.000000 0.000000 0.000000 0.000000 5.892958 -0.071958 -0.243438 68.695268 5.805231 11.294993 179.796249 85.443977 179.970902 -4.593467 1.567343 -0.080055 0.084634 -0.413478 0.000000 0.000000 0.000000 0.000000 0.000000 0.000000 0.000000 
-9.217734 15.343982 -0.824883 -63.761847 82.022016 -36.694404 -0.775712 0.577736 10.898203 -0.981986 0.959477 -1.100911 -5.989912 1.007953 -1.317625 9.423270 -7.323112 -8.229132 -2.044011 -0.114484 -0.621166 0.000000 0.000000 0.000000 -2.507045 15.763051 2.518048 -71.605479 19.910279 6.084332 -0.165843 -86.273204 -0.001905 0.305819 5.680715 0.016673 -0.024866 0.110209 0.000000 0.000000 0.000000 0.000000 0.000000 0.000000 0.000000 6.195681 0.220916 -0.175217 69.143461 5.463556 10.933793 179.821193 86.173462 179.973222 -4.250523 1.747479 -0.080775 0.074376 -0.414328 0.000000 0.000000 0.000000 0.000000 0.000000 0.000000 0.000000 
-9.015301 15.313155 -0.822797 -61.171328 81.714647 -34.399721 -0.953732 0.607630 10.974116 -1.037513 0.988546 -1.116792 -6.091092 1.035613 -1.435662 9.440287 -7.023886 -8.148107 -2.125773 -0.121510 -0.602372 0.000000 0.000000 0.000000 -2.774279 15.367837 2.539181 -71.196591 18.751523 6.209114 -0.193711 -85.686542 -0.003769 0.765853 6.084278 0.042309 -0.033434 0.108155 0.000000 0.000000 0.000000 0.000000 0.000000 0.000000 0.000000 6.530257 0.505392 -0.107727 69.614847 5.135729 10.514075 179.851505 87.011143 179.974841 -4.009943 1.908711 -0.081895 0.065852 -0.414385 0.000000 0.000000 0.000000 0.000000 0.000000 0.000000 0.000000 
-8.816757 15.287240 -0.821341 -58.825731 81.470382 -32.319376 -1.124771 0.619309 11.056264 -1.090813 0.998788 -1.128968 -6.191457 1.044336 -1.548297 9.433605 -6.716609 -8.045297 -2.213579 -0.129215 -0.578047 0.000000 0.000000 0.000000 -3.043776 14.925648 2.559337 -70.727547 17.466866 6.407119 -0.225026 -85.032096 -0.005920 1.269637 6.523612 0.074248 -0.042883 0.106159 0.000000 0.000000 0.000000 0.000000 0.000000 0.000000 0.000000 6.882783 0.764056 -0.043523 70.104739 4.829143 10.050984 179.886787 87.964580 179.975622 -3.895872 2.036309 -0.083814 0.059513 -0.413280 0.000000 0.000000 0.000000 0.000000 0.000000 0.000000 0.000000 
-8.621730 15.266134 -0.821041 -56.832129 81.292891 -30.562494 -1.265621 0.608710 11.142941 -1.136379 0.986202 -1.136205 -6.288113 1.030249 -1.650421 9.401731 -6.413349 -7.923247 -2.303974 -0.137305 -0.548510 0.000000 0.000000 0.000000 -3.303067 14.442716 2.577743 -70.219675 16.072707 6.668653 -0.259263 -84.324119 -0.008353 1.807952 6.986932 0.112589 -0.053034 0.104430 0.000000 0.000000 0.000000 0.000000 0.000000 0.000000 0.000000 7.237763 0.982323 0.015602 70.607398 4.548153 9.560481 179.925963 89.035156 179.975471 -3.927873 2.116263 -0.087135 0.055692 -0.410724 0.000000 0.000000 0.000000 0.000000 0.000000 0.000000 0.000000 
